<svg width="154" height="115" viewBox="0 0 154 115" fill="none" xmlns="http://www.w3.org/2000/svg">
<circle cx="77.0287" cy="56.5574" r="15.082" fill="url(#paint0_linear_42_36)"/>
<path d="M79.8566 34.1701C79.8566 48.096 68.5674 59.3852 54.6414 59.3852C40.7155 59.3852 29.4263 48.096 29.4263 34.1701C29.4263 20.2441 40.7155 8.9549 54.6414 8.9549C68.5674 8.9549 79.8566 20.2441 79.8566 34.1701ZM34.9724 34.1701C34.9724 45.0329 43.7785 53.8391 54.6414 53.8391C65.5043 53.8391 74.3104 45.0329 74.3104 34.1701C74.3104 23.3072 65.5043 14.5011 54.6414 14.5011C43.7785 14.5011 34.9724 23.3072 34.9724 34.1701Z" fill="url(#paint1_linear_42_36)"/>
<path d="M102.008 25.2152C102.008 39.1411 90.7192 50.4303 76.7933 50.4303C62.8673 50.4303 51.5781 39.1411 51.5781 25.2152C51.5781 11.2892 62.8673 0 76.7933 0C90.7192 0 102.008 11.2892 102.008 25.2152ZM57.1243 25.2152C57.1243 36.078 65.9304 44.8842 76.7933 44.8842C87.6562 44.8842 96.4623 36.078 96.4623 25.2152C96.4623 14.3523 87.6562 5.54617 76.7933 5.54617C65.9304 5.54617 57.1243 14.3523 57.1243 25.2152Z" fill="url(#paint2_linear_42_36)"/>
<path d="M125.103 34.1701C125.103 48.096 113.813 59.3852 99.8875 59.3852C85.9616 59.3852 74.6724 48.096 74.6724 34.1701C74.6724 20.2441 85.9616 8.9549 99.8875 8.9549C113.813 8.9549 125.103 20.2441 125.103 34.1701ZM80.2185 34.1701C80.2185 45.0329 89.0246 53.8391 99.8875 53.8391C110.75 53.8391 119.557 45.0329 119.557 34.1701C119.557 23.3072 110.75 14.5011 99.8875 14.5011C89.0246 14.5011 80.2185 23.3072 80.2185 34.1701Z" fill="url(#paint3_linear_42_36)"/>
<path d="M134.058 57.7357C134.058 71.6616 122.769 82.9508 108.843 82.9508C94.9167 82.9508 83.6274 71.6616 83.6274 57.7357C83.6274 43.8097 94.9167 32.5205 108.843 32.5205C122.769 32.5205 134.058 43.8097 134.058 57.7357ZM89.1736 57.7357C89.1736 68.5986 97.9797 77.4047 108.843 77.4047C119.705 77.4047 128.512 68.5986 128.512 57.7357C128.512 46.8728 119.705 38.0667 108.843 38.0667C97.9797 38.0667 89.1736 46.8728 89.1736 57.7357Z" fill="url(#paint4_linear_42_36)"/>
<path d="M125.103 80.3586C125.103 94.2845 113.813 105.574 99.8875 105.574C85.9616 105.574 74.6724 94.2845 74.6724 80.3586C74.6724 66.4326 85.9616 55.1434 99.8875 55.1434C113.813 55.1434 125.103 66.4326 125.103 80.3586ZM80.2185 80.3586C80.2185 91.2215 89.0246 100.028 99.8875 100.028C110.75 100.028 119.557 91.2215 119.557 80.3586C119.557 69.4957 110.75 60.6896 99.8875 60.6896C89.0246 60.6896 80.2185 69.4957 80.2185 80.3586Z" fill="url(#paint5_linear_42_36)"/>
<path d="M102.008 89.7849C102.008 103.711 90.7192 115 76.7933 115C62.8673 115 51.5781 103.711 51.5781 89.7849C51.5781 75.8589 62.8673 64.5697 76.7933 64.5697C90.7192 64.5697 102.008 75.8589 102.008 89.7849ZM57.1243 89.7849C57.1243 100.648 65.9304 109.454 76.7933 109.454C87.6562 109.454 96.4623 100.648 96.4623 89.7849C96.4623 78.922 87.6562 70.1159 76.7933 70.1159C65.9304 70.1159 57.1243 78.922 57.1243 89.7849Z" fill="url(#paint6_linear_42_36)"/>
<path d="M79.8566 80.3586C79.8566 94.2845 68.5674 105.574 54.6414 105.574C40.7155 105.574 29.4263 94.2845 29.4263 80.3586C29.4263 66.4326 40.7155 55.1434 54.6414 55.1434C68.5674 55.1434 79.8566 66.4326 79.8566 80.3586ZM34.9724 80.3586C34.9724 91.2215 43.7785 100.028 54.6414 100.028C65.5043 100.028 74.3104 91.2215 74.3104 80.3586C74.3104 69.4957 65.5043 60.6896 54.6414 60.6896C43.7785 60.6896 34.9724 69.4957 34.9724 80.3586Z" fill="url(#paint7_linear_42_36)"/>
<path d="M70.4303 57.7357C70.4303 71.6616 59.1411 82.9508 45.2152 82.9508C31.2892 82.9508 20 71.6616 20 57.7357C20 43.8097 31.2892 32.5205 45.2152 32.5205C59.1411 32.5205 70.4303 43.8097 70.4303 57.7357ZM25.5462 57.7357C25.5462 68.5986 34.3523 77.4047 45.2152 77.4047C56.078 77.4047 64.8842 68.5986 64.8842 57.7357C64.8842 46.8728 56.078 38.0667 45.2152 38.0667C34.3523 38.0667 25.5462 46.8728 25.5462 57.7357Z" fill="url(#paint8_linear_42_36)"/>
<path d="M76.6366 33.9344L62.6099 22.5385C66.5685 12.3402 69.4327 7.2148 76.6366 0C82.3137 8.67082 85.0657 13.8087 89.4746 23.2983L76.6366 33.9344Z" fill="url(#paint9_linear_42_36)"/>
<path d="M71.8005 39.1188C62.0296 30.0492 56.1024 26.4809 44.9357 22.1516C42.2172 27.9874 42.0456 33.5376 42.8148 45.2459C49.123 47.838 52.8845 51.0414 59.782 58.2069C62.9982 50.2014 65.3685 45.9242 71.8005 39.1188Z" fill="url(#paint10_linear_42_36)"/>
<path d="M110.919 44.3033C93.0562 54.6541 86.2137 64.7742 77.2207 87.1926L64.731 64.334C75.3601 42.0727 85.3625 33.0514 109.27 22.1516L110.919 44.3033Z" fill="url(#paint11_linear_42_36)"/>
<path d="M0 30.6353L0.235656 30.1639C41.2524 37.889 55.5263 52.6427 66.4549 96.3832L65.9836 96.6189C21.2079 84.2887 7.25384 69.499 0 30.6353Z" fill="url(#paint12_linear_42_36)"/>
<path d="M153.647 30.6353L153.412 30.1639C112.395 37.889 98.1211 52.6427 87.1926 96.3832L87.6639 96.6189C132.44 84.2887 146.394 69.499 153.647 30.6353Z" fill="url(#paint13_linear_42_36)"/>
<defs>
<linearGradient id="paint0_linear_42_36" x1="77.0287" y1="41.4754" x2="77.0287" y2="71.6393" gradientUnits="userSpaceOnUse">
<stop stop-color="#FFA217"/>
<stop offset="1" stop-color="#919191" stop-opacity="0"/>
</linearGradient>
<linearGradient id="paint1_linear_42_36" x1="54.6414" y1="8.9549" x2="54.6414" y2="59.3852" gradientUnits="userSpaceOnUse">
<stop stop-color="#FFA217"/>
<stop offset="1" stop-color="#919191" stop-opacity="0"/>
</linearGradient>
<linearGradient id="paint2_linear_42_36" x1="76.7933" y1="0" x2="76.7933" y2="50.4303" gradientUnits="userSpaceOnUse">
<stop stop-color="#FFA217"/>
<stop offset="1" stop-color="#919191" stop-opacity="0"/>
</linearGradient>
<linearGradient id="paint3_linear_42_36" x1="99.8875" y1="8.9549" x2="99.8875" y2="59.3852" gradientUnits="userSpaceOnUse">
<stop stop-color="#FFA217"/>
<stop offset="1" stop-color="#919191" stop-opacity="0"/>
</linearGradient>
<linearGradient id="paint4_linear_42_36" x1="108.843" y1="32.5205" x2="108.843" y2="82.9508" gradientUnits="userSpaceOnUse">
<stop stop-color="#FFA217"/>
<stop offset="1" stop-color="#919191" stop-opacity="0"/>
</linearGradient>
<linearGradient id="paint5_linear_42_36" x1="99.8875" y1="55.1434" x2="99.8875" y2="105.574" gradientUnits="userSpaceOnUse">
<stop stop-color="#FFA217"/>
<stop offset="1" stop-color="#919191" stop-opacity="0"/>
</linearGradient>
<linearGradient id="paint6_linear_42_36" x1="76.7933" y1="64.5697" x2="76.7933" y2="115" gradientUnits="userSpaceOnUse">
<stop stop-color="#FFA217"/>
<stop offset="1" stop-color="#919191" stop-opacity="0"/>
</linearGradient>
<linearGradient id="paint7_linear_42_36" x1="54.6414" y1="55.1434" x2="54.6414" y2="105.574" gradientUnits="userSpaceOnUse">
<stop stop-color="#FFA217"/>
<stop offset="1" stop-color="#919191" stop-opacity="0"/>
</linearGradient>
<linearGradient id="paint8_linear_42_36" x1="45.2152" y1="32.5205" x2="45.2152" y2="82.9508" gradientUnits="userSpaceOnUse">
<stop stop-color="#FFA217"/>
<stop offset="1" stop-color="#919191" stop-opacity="0"/>
</linearGradient>
<linearGradient id="paint9_linear_42_36" x1="76.0422" y1="0" x2="76.0422" y2="33.9344" gradientUnits="userSpaceOnUse">
<stop stop-color="#00A3FF"/>
<stop offset="1" stop-color="#675E48" stop-opacity="0"/>
</linearGradient>
<linearGradient id="paint10_linear_42_36" x1="57.1092" y1="22.1516" x2="57.1092" y2="58.2069" gradientUnits="userSpaceOnUse">
<stop stop-color="#00A3FF"/>
<stop offset="1" stop-color="#675E48" stop-opacity="0"/>
</linearGradient>
<linearGradient id="paint11_linear_42_36" x1="87.8252" y1="22.1516" x2="87.8252" y2="87.1926" gradientUnits="userSpaceOnUse">
<stop stop-color="#00A3FF"/>
<stop offset="1" stop-color="#675E48" stop-opacity="0"/>
</linearGradient>
<linearGradient id="paint12_linear_42_36" x1="33.2275" y1="30.1639" x2="33.2275" y2="96.6189" gradientUnits="userSpaceOnUse">
<stop stop-color="#00A3FF"/>
<stop offset="1" stop-color="#675E48" stop-opacity="0"/>
</linearGradient>
<linearGradient id="paint13_linear_42_36" x1="120.42" y1="30.1639" x2="120.42" y2="96.6189" gradientUnits="userSpaceOnUse">
<stop stop-color="#00A3FF"/>
<stop offset="1" stop-color="#675E48" stop-opacity="0"/>
</linearGradient>
</defs>
</svg>
